STARTFONT 2.1
FONT -Monotype-Times New Roman-Regular-R-Normal--36-360-75-75-P-172-iso8859-2
SIZE 36 75 75
FONTBOUNDINGBOX 44 43 -6 -9

STARTPROPERTIES 24
FOUNDRY "Monotype"
FAMILY_NAME "Times New Roman"
WEIGHT_NAME "Regular"
SLANT "R"
SETWIDTH_NAME "Normal"
ADD_STYLE_NAME ""
PIXEL_SIZE 36
POINT_SIZE 360
RESOLUTION_X 75
RESOLUTION_Y 75
SPACING "P"
AVERAGE_WIDTH 172
CHARSET_REGISTRY "iso8859"
CHARSET_ENCODING "2"
FACE_NAME "Times New Roman ISO Latin2"
_DEC_DEVICE_FONTNAMES "PS=timesnewroman-lat2"
COPYRIGHT "Copyright (c) 1993 Monotype Typography Ltd."
CAP_HEIGHT 28
X_HEIGHT 19
WEIGHT 10
QUAD_WIDTH 22
DEFAULT_CHAR 160
FONT_DESCENT 9
FONT_ASCENT 34
ENDPROPERTIES

CHARS 191

STARTCHAR space
ENCODING 32
SWIDTH 250 0
DWIDTH 10 0
BBX 0 0 0 0
BITMAP
ENDCHAR

STARTCHAR exclam
ENCODING 33
SWIDTH 333 0
DWIDTH 13 0
BBX 4 26 4 0
BITMAP
F0
F0
F0
F0
F0
F0
F0
F0
60
60
60
60
60
60
60
60
60
60
20
00
00
00
60
F0
F0
60
ENDCHAR

STARTCHAR quotedbl
ENCODING 34
SWIDTH 408 0
DWIDTH 16 0
BBX 11 11 2 15
BITMAP
60C0
F1E0
F1E0
F1E0
F1E0
60C0
60C0
60C0
60C0
60C0
60C0
ENDCHAR

STARTCHAR numbersign
ENCODING 35
SWIDTH 500 0
DWIDTH 19 0
BBX 17 26 1 0
BITMAP
030300
030300
020200
020200
060600
060600
060600
040400
FFFF80
FFFF80
0C0C00
0C0C00
080800
080800
181800
181800
FFFF80
FFFF80
101000
303000
303000
303000
202000
202000
606000
606000
ENDCHAR

STARTCHAR dollar
ENCODING 36
SWIDTH 500 0
DWIDTH 19 0
BBX 15 30 2 -3
BITMAP
0100
0380
1FF8
311C
710C
E10C
E104
E104
F104
F900
7D00
3F00
1F80
0FC0
07E0
01F0
0178
013C
011E
010E
010E
810E
810E
C10C
C11C
F138
7FF0
0300
0100
0100
ENDCHAR

STARTCHAR percent
ENCODING 37
SWIDTH 833 0
DWIDTH 32 0
BBX 29 26 1 0
BITMAP
1F000300
31800600
71C00600
60C00C00
E0E01800
E0E01800
E0E03000
E0E06000
E0E06000
E0E0C000
60C18000
71C18000
31830000
0F0607C0
00060C60
000C1C70
00181838
00103838
00303838
00603838
00403838
00C03838
01801830
01001C70
03000C60
060007C0
ENDCHAR

STARTCHAR ampersand
ENCODING 38
SWIDTH 778 0
DWIDTH 30 0
BBX 26 26 2 0
BITMAP
007E0000
00E70000
01C38000
01818000
03818000
03818000
03838000
03C30000
03C60000
01DC7F80
01F01E00
01F01C00
03F01800
0EF81800
1C781000
383C3000
703C6000
701E4000
F01FC000
F00F8000
F007C040
F807E040
F80DF0C0
7C39FF80
3FF07F80
0F801E00
ENDCHAR

STARTCHAR quoteright
ENCODING 39
SWIDTH 333 0
DWIDTH 13 0
BBX 6 10 3 16
BITMAP
70
F8
FC
7C
0C
0C
08
10
60
40
ENDCHAR

STARTCHAR parenleft
ENCODING 40
SWIDTH 333 0
DWIDTH 13 0
BBX 11 34 1 -8
BITMAP
0060
0080
0300
0600
0C00
0C00
1800
3800
3800
3800
7000
7000
7000
F000
F000
F000
F000
F000
F000
F000
7000
7000
7000
7000
3800
3800
1800
1C00
0C00
0600
0200
0100
0080
0060
ENDCHAR

STARTCHAR parenright
ENCODING 41
SWIDTH 333 0
DWIDTH 13 0
BBX 10 34 1 -8
BITMAP
8000
4000
3000
1800
0C00
0C00
0600
0700
0700
0380
0380
0380
0380
03C0
03C0
03C0
03C0
03C0
03C0
03C0
03C0
0380
0380
0380
0700
0700
0600
0600
0C00
1800
1000
2000
4000
8000
ENDCHAR

STARTCHAR asterisk
ENCODING 42
SWIDTH 500 0
DWIDTH 19 0
BBX 13 15 3 11
BITMAP
0700
0700
0700
E738
F278
FAF8
1EC0
0700
7AE0
F278
E238
C718
0700
0700
0300
ENDCHAR

STARTCHAR plus
ENCODING 43
SWIDTH 564 0
DWIDTH 21 0
BBX 20 20 1 3
BITMAP
006000
006000
006000
006000
006000
006000
006000
006000
006000
FFFFF0
FFFFF0
006000
006000
006000
006000
006000
006000
006000
006000
006000
ENDCHAR

STARTCHAR comma
ENCODING 44
SWIDTH 250 0
DWIDTH 10 0
BBX 5 10 2 -6
BITMAP
70
F8
F8
F8
08
08
18
30
60
80
ENDCHAR

STARTCHAR minus
ENCODING 45
SWIDTH 564 0
DWIDTH 21 0
BBX 20 2 1 12
BITMAP
FFFFF0
FFFFF0
ENDCHAR

STARTCHAR period
ENCODING 46
SWIDTH 250 0
DWIDTH 10 0
BBX 4 4 3 0
BITMAP
60
F0
F0
60
ENDCHAR

STARTCHAR slash
ENCODING 47
SWIDTH 278 0
DWIDTH 11 0
BBX 11 27 0 -1
BITMAP
0060
00C0
00C0
0080
0180
0180
0100
0300
0300
0200
0600
0600
0400
0C00
0C00
0800
1800
1800
1000
3000
3000
2000
6000
6000
4000
C000
C000
ENDCHAR

STARTCHAR zero
ENCODING 48
SWIDTH 500 0
DWIDTH 19 0
BBX 17 26 1 0
BITMAP
03E000
0E3800
1C1C00
180C00
380E00
380F00
780700
700700
700700
F00780
F00780
F00780
F00780
F00780
F00780
F00780
F00780
700700
700700
780F00
380E00
380E00
180C00
1C1C00
063800
03E000
ENDCHAR

STARTCHAR one
ENCODING 49
SWIDTH 500 0
DWIDTH 19 0
BBX 10 26 4 0
BITMAP
0200
0E00
7E00
9E00
0E00
0E00
0E00
0E00
0E00
0E00
0E00
0E00
0E00
0E00
0E00
0E00
0E00
0E00
0E00
0E00
0E00
0E00
0E00
0E00
1F00
7FC0
ENDCHAR

STARTCHAR two
ENCODING 50
SWIDTH 500 0
DWIDTH 19 0
BBX 17 26 1 0
BITMAP
03C000
0FF000
1FFC00
387C00
201E00
401E00
400E00
000E00
000E00
000E00
000C00
001C00
001800
003800
003000
006000
00C000
018000
010000
020000
040000
080080
180300
3FFF00
7FFE00
FFFE00
ENDCHAR

STARTCHAR three
ENCODING 51
SWIDTH 500 0
DWIDTH 19 0
BBX 14 26 2 0
BITMAP
0780
1FE0
3FF0
60F8
C078
4038
0038
0030
0030
0060
00C0
01E0
0FF0
01F8
007C
003C
003C
001C
001C
001C
0018
0018
4030
F060
FFC0
7E00
ENDCHAR

STARTCHAR four
ENCODING 52
SWIDTH 500 0
DWIDTH 19 0
BBX 17 26 0 0
BITMAP
001C00
001C00
003C00
007C00
005C00
00DC00
019C00
011C00
031C00
061C00
0C1C00
081C00
181C00
301C00
201C00
401C00
FFFF80
FFFF80
FFFF80
001C00
001C00
001C00
001C00
001C00
001C00
001C00
ENDCHAR

STARTCHAR five
ENCODING 53
SWIDTH 500 0
DWIDTH 19 0
BBX 15 26 2 0
BITMAP
07FE
07FC
0FFC
0800
1800
1000
3000
3F00
7FC0
7FE0
07F0
00F8
0078
003C
001C
001C
000C
000C
000C
000C
0018
0018
E030
F0E0
FF80
3E00
ENDCHAR

STARTCHAR six
ENCODING 54
SWIDTH 500 0
DWIDTH 19 0
BBX 16 27 1 0
BITMAP
0007
0038
00E0
03C0
0700
0F00
0E00
1C00
3C00
3800
79F0
73F8
7C3C
F01E
F00F
F00F
F00F
F007
F007
7007
7007
7006
380E
380E
1C1C
0E38
03E0
ENDCHAR

STARTCHAR seven
ENCODING 55
SWIDTH 500 0
DWIDTH 19 0
BBX 16 26 1 0
BITMAP
1FFF
3FFF
3FFF
7006
4006
8006
000C
000C
000C
0018
0018
0018
0030
0030
0030
0060
0060
0060
00C0
00C0
00C0
0180
0180
0180
0300
0300
ENDCHAR

STARTCHAR eight
ENCODING 56
SWIDTH 500 0
DWIDTH 19 0
BBX 15 26 2 0
BITMAP
0FC0
3870
7038
6018
E01C
E01C
E01C
7018
7838
3C70
1EC0
0F80
07C0
0FE0
19F0
30F8
707C
601C
E01E
E00E
E00E
E00E
700C
7018
1C30
0FE0
ENDCHAR

STARTCHAR nine
ENCODING 57
SWIDTH 500 0
DWIDTH 19 0
BBX 15 26 2 0
BITMAP
07C0
1C70
3038
7038
601C
601C
E01E
E00E
E00E
E00E
F00E
F00E
700E
781E
3C3E
1FDE
0F1C
003C
0038
0078
0070
00E0
01C0
0380
0700
FC00
ENDCHAR

STARTCHAR colon
ENCODING 58
SWIDTH 278 0
DWIDTH 11 0
BBX 4 18 3 0
BITMAP
60
F0
F0
60
00
00
00
00
00
00
00
00
00
00
60
F0
F0
60
ENDCHAR

STARTCHAR semicolon
ENCODING 59
SWIDTH 278 0
DWIDTH 11 0
BBX 5 24 3 -6
BITMAP
60
F0
F0
60
00
00
00
00
00
00
00
00
00
00
F0
F8
F8
F8
08
08
18
30
60
80
ENDCHAR

STARTCHAR less
ENCODING 60
SWIDTH 564 0
DWIDTH 21 0
BBX 20 19 1 3
BITMAP
000010
000070
0003C0
000F00
003C00
00E000
078000
1E0000
780000
E00000
780000
0E0000
03C000
00F000
003C00
000700
0001E0
000070
000010
ENDCHAR

STARTCHAR equal
ENCODING 61
SWIDTH 564 0
DWIDTH 21 0
BBX 20 8 1 9
BITMAP
FFFFF0
FFFFF0
000000
000000
000000
000000
FFFFF0
FFFFF0
ENDCHAR

STARTCHAR greater
ENCODING 62
SWIDTH 564 0
DWIDTH 21 0
BBX 20 19 1 3
BITMAP
800000
E00000
780000
1E0000
03C000
00F000
003C00
000700
0001E0
000070
0003C0
000F00
003C00
01E000
078000
1E0000
700000
C00000
800000
ENDCHAR

STARTCHAR question
ENCODING 63
SWIDTH 444 0
DWIDTH 17 0
BBX 13 26 2 0
BITMAP
1FC0
30E0
4070
C078
E038
E038
E038
6038
0078
0070
0060
00E0
00C0
0180
0100
0300
0200
0200
0200
0200
0000
0000
0600
0F00
0F00
0600
ENDCHAR

STARTCHAR at
ENCODING 64
SWIDTH 921 0
DWIDTH 35 0
BBX 33 35 2 -9
BITMAP
0003FC0000
001C038000
007000C000
00C0002000
0380001000
0700000800
0600000C00
0C00000400
1800000400
3800F38200
30038B0200
30060F0200
600E070200
601C0E0200
60180E0200
C0380E0200
C0700E0200
C0701C0600
C0F01C0400
C0E03C0C00
C0E0380800
C0E0581800
40E0B83000
60F3386000
607E38C180
203C1F0100
3000000200
1000000600
1800000C00
0C00000800
0600003000
0300006000
00C001C000
00380F0000
000FF80000
ENDCHAR

STARTCHAR A
ENCODING 65
SWIDTH 722 0
DWIDTH 27 0
BBX 27 26 0 0
BITMAP
00040000
00060000
000E0000
000E0000
001F0000
001F0000
00178000
00378000
0023C000
0063C000
0061C000
00C1E000
00C0E000
0080F000
0180F000
01007800
03FFF800
03003800
06003C00
06003C00
04001E00
0C001E00
0C000E00
18000F00
3C001F80
FF007FE0
ENDCHAR

STARTCHAR B
ENCODING 66
SWIDTH 667 0
DWIDTH 25 0
BBX 22 26 1 0
BITMAP
FFFF00
1E07C0
1E01E0
1E00F0
1E0078
1E0078
1E0078
1E0078
1E0078
1E00F0
1E01F0
1E07E0
1FFF80
1E07E0
1E01F0
1E0078
1E007C
1E003C
1E003C
1E003C
1E003C
1E007C
1E0078
1E00F0
1F07E0
FFFF80
ENDCHAR

STARTCHAR C
ENCODING 67
SWIDTH 667 0
DWIDTH 25 0
BBX 23 26 2 0
BITMAP
00FF88
03E0F8
07003C
0E001C
1C000C
3C000C
780004
780004
780000
F00000
F00000
F00000
F00000
F00000
F00000
F00000
F00000
780000
780000
780002
3C0004
1E0008
0F0010
07C060
01FFC0
007E00
ENDCHAR

STARTCHAR D
ENCODING 68
SWIDTH 722 0
DWIDTH 27 0
BBX 25 26 1 0
BITMAP
FFFF8000
1F07E000
1E00F800
1E007C00
1E003E00
1E001E00
1E000F00
1E000F00
1E000F80
1E000780
1E000780
1E000780
1E000780
1E000780
1E000780
1E000780
1E000780
1E000F80
1E000F00
1E001F00
1E001E00
1E003C00
1E007800
1E00F000
1F07E000
FFFF0000
ENDCHAR

STARTCHAR E
ENCODING 69
SWIDTH 611 0
DWIDTH 23 0
BBX 21 26 1 0
BITMAP
FFFFE0
1E00E0
1E0020
1E0020
1E0020
1E0020
1E0000
1E0000
1E0080
1E0080
1E0080
1E0380
1FFF80
1E0180
1E0080
1E0080
1E0080
1E0000
1E0000
1E0000
1E0008
1E0018
1E0010
1E0030
1E00F0
FFFFE0
ENDCHAR

STARTCHAR F
ENCODING 70
SWIDTH 556 0
DWIDTH 21 0
BBX 19 26 1 0
BITMAP
FFFFC0
1E01C0
1E0040
1E0060
1E0020
1E0000
1E0000
1E0000
1E0200
1E0200
1E0200
1FFE00
1FFE00
1E0200
1E0200
1E0200
1E0000
1E0000
1E0000
1E0000
1E0000
1E0000
1E0000
1E0000
3F0000
FFC000
ENDCHAR

STARTCHAR G
ENCODING 71
SWIDTH 722 0
DWIDTH 27 0
BBX 26 26 1 0
BITMAP
007FC400
01E0FC00
07803C00
0F000C00
1E000C00
3C000600
3C000200
78000200
78000000
70000000
F0000000
F0000000
F000FFC0
F0001E00
F0001E00
F0001E00
F8001E00
78001E00
78001E00
7C001E00
3C001E00
1E001E00
0F001E00
07801E00
01F0FC00
007FE000
ENDCHAR

STARTCHAR H
ENCODING 72
SWIDTH 722 0
DWIDTH 27 0
BBX 25 26 1 0
BITMAP
FFC1FF80
1E003C00
1E003C00
1E003C00
1E003C00
1E003C00
1E003C00
1E003C00
1E003C00
1E003C00
1E003C00
1E003C00
1FFFFC00
1E003C00
1E003C00
1E003C00
1E003C00
1E003C00
1E003C00
1E003C00
1E003C00
1E003C00
1E003C00
1E003C00
3E003E00
FFC1FF80
ENDCHAR

STARTCHAR I
ENCODING 73
SWIDTH 333 0
DWIDTH 13 0
BBX 10 26 1 0
BITMAP
FFC0
1E00
1E00
1E00
1E00
1E00
1E00
1E00
1E00
1E00
1E00
1E00
1E00
1E00
1E00
1E00
1E00
1E00
1E00
1E00
1E00
1E00
1E00
1E00
3F00
FFC0
ENDCHAR

STARTCHAR J
ENCODING 74
SWIDTH 389 0
DWIDTH 15 0
BBX 13 26 1 0
BITMAP
1FF8
03C0
03C0
03C0
03C0
03C0
03C0
03C0
03C0
03C0
03C0
03C0
03C0
03C0
03C0
03C0
03C0
03C0
03C0
03C0
03C0
4380
E380
F300
F700
7C00
ENDCHAR

STARTCHAR K
ENCODING 75
SWIDTH 722 0
DWIDTH 27 0
BBX 27 26 1 0
BITMAP
FFC3FE00
1E00F800
1E00E000
1E00C000
1E018000
1E030000
1E060000
1E0C0000
1E180000
1E300000
1E600000
1EC00000
1EE00000
1EF00000
1EF80000
1E7C0000
1E3E0000
1E1F0000
1E0F8000
1E07C000
1E03E000
1E01F000
1E00F800
1E007E00
3F007F00
FFC1FFE0
ENDCHAR

STARTCHAR L
ENCODING 76
SWIDTH 611 0
DWIDTH 23 0
BBX 21 26 1 0
BITMAP
FFE000
1F0000
1E0000
1E0000
1E0000
1E0000
1E0000
1E0000
1E0000
1E0000
1E0000
1E0000
1E0000
1E0000
1E0000
1E0000
1E0000
1E0000
1E0000
1E0008
1E0008
1E0010
1E0030
1E0070
3FFFF0
FFFFE0
ENDCHAR

STARTCHAR M
ENCODING 77
SWIDTH 889 0
DWIDTH 34 0
BBX 32 26 1 0
BITMAP
FE00007F
3E000078
1F0000F8
1F0000F8
1B8001B8
1B8001B8
1BC00378
1BC00378
19E00678
19E00678
18F00478
18F00C78
18780878
18781878
18381878
183C3078
183C3078
181E6078
181E6078
180FC078
180FC078
18078078
18078078
18030078
3C0300FC
FF0103FF
ENDCHAR

STARTCHAR N
ENCODING 78
SWIDTH 722 0
DWIDTH 27 0
BBX 27 26 -1 0
BITMAP
FE001FE0
1F000300
0F800300
07C00300
07C00300
07E00300
06F00300
06F80300
067C0300
063C0300
061E0300
060F0300
060F8300
0607C300
0603C300
0601E300
0601F300
0600FB00
06007B00
06003F00
06001F00
06001F00
06000F00
06000700
0F000300
3FC00100
ENDCHAR

STARTCHAR O
ENCODING 79
SWIDTH 722 0
DWIDTH 27 0
BBX 24 26 2 0
BITMAP
00FF00
03C3C0
0F00F0
1E0078
1C0038
38001C
78001E
78001E
78000F
F0000F
F0000F
F0000F
F0000F
F0000F
F0000F
F0000F
F0000F
78001E
78001E
78001E
3C001C
1C0038
1E0078
0700F0
03C3C0
00FF00
ENDCHAR

STARTCHAR P
ENCODING 80
SWIDTH 556 0
DWIDTH 21 0
BBX 19 26 1 0
BITMAP
FFF800
1FFF00
1E0F80
1E07C0
1E03E0
1E01E0
1E01E0
1E01E0
1E01E0
1E01E0
1E03C0
1E03C0
1E0F80
1FFE00
1E0000
1E0000
1E0000
1E0000
1E0000
1E0000
1E0000
1E0000
1E0000
1E0000
3F0000
FFE000
ENDCHAR

STARTCHAR Q
ENCODING 81
SWIDTH 722 0
DWIDTH 27 0
BBX 24 33 2 -7
BITMAP
00FF00
03C3C0
0F00F0
1E0078
1C0038
38001C
78001E
78001E
78000F
F0000F
F0000F
F0000F
F0000F
F0000F
F0000F
F0000F
F0000F
78001E
78001E
78001E
3C003C
1C0038
0E0070
0700E0
03C3C0
00FF00
003E00
001F00
000F80
0007C0
0001E0
000078
00000F
ENDCHAR

STARTCHAR R
ENCODING 82
SWIDTH 667 0
DWIDTH 25 0
BBX 25 26 1 0
BITMAP
FFFE0000
1F1F8000
1E07C000
1E03C000
1E03E000
1E01E000
1E01E000
1E01E000
1E01E000
1E03E000
1E03C000
1E078000
1E3F0000
1FF80000
1E3C0000
1E3C0000
1E1E0000
1E0F0000
1E0F0000
1E078000
1E03C000
1E01E000
1E01E000
1E00F000
3E007C00
FFC07F80
ENDCHAR

STARTCHAR S
ENCODING 83
SWIDTH 556 0
DWIDTH 21 0
BBX 17 26 2 0
BITMAP
07C100
1FFB00
381F00
700F00
E00700
E00300
E00300
F00100
F80100
7E0000
3F8000
1FE000
0FF000
03FC00
00FE00
003F00
001F80
800780
800780
800380
C00380
E00380
F00700
F80E00
DFFC00
81E000
ENDCHAR

STARTCHAR T
ENCODING 84
SWIDTH 611 0
DWIDTH 23 0
BBX 21 26 2 0
BITMAP
FFFFF0
FFFFF0
C0F030
80F010
80F008
80F008
00F000
00F000
00F000
00F000
00F000
00F000
00F000
00F000
00F000
00F000
00F000
00F000
00F000
00F000
00F000
00F000
00F000
00F000
01F800
07FE00
ENDCHAR

STARTCHAR U
ENCODING 85
SWIDTH 722 0
DWIDTH 27 0
BBX 26 26 1 0
BITMAP
FFC03FC0
1E000600
1E000600
1E000600
1E000600
1E000600
1E000600
1E000600
1E000600
1E000600
1E000600
1E000600
1E000600
1E000600
1E000600
1E000600
1E000600
1E000600
1E000600
0E000400
0E000C00
0F000C00
07801800
03C07000
01FFE000
003F0000
ENDCHAR

STARTCHAR V
ENCODING 86
SWIDTH 722 0
DWIDTH 27 0
BBX 27 26 0 0
BITMAP
FFE01FE0
1F000780
0F000300
0F000300
07000600
07800600
07800400
03C00C00
03C00C00
01E01800
01E01800
00E01000
00F03000
00F03000
00786000
00786000
003C4000
003CC000
001CC000
001F8000
001F8000
000F0000
000F0000
00060000
00060000
00020000
ENDCHAR

STARTCHAR W
ENCODING 87
SWIDTH 944 0
DWIDTH 36 0
BBX 35 26 1 0
BITMAP
FF8FF81FE0
3E03E00380
1E01E00300
1E01E00300
1E01E00200
0E00F00600
0F00700600
0F00F00400
0780F80C00
0780F80800
0381B80800
03C1BC1800
03C13C1000
01C31C3000
01E31E3000
01E21E2000
00E60E6000
00F60F6000
00F40F4000
007C07C000
007C07C000
0078038000
0038038000
0038038000
0010010000
0010010000
ENDCHAR

STARTCHAR X
ENCODING 88
SWIDTH 722 0
DWIDTH 27 0
BBX 27 26 0 0
BITMAP
7FF03FE0
0FC00F00
07C00E00
03C00C00
01E01800
01F03000
00F07000
00786000
007CC000
003D8000
001F0000
001F0000
000F0000
000F8000
001FC000
001BC000
0031E000
0061E000
00C0F000
00C0F800
01807800
03003C00
06003E00
0E001F00
3E003F80
FF80FFE0
ENDCHAR

STARTCHAR Y
ENCODING 89
SWIDTH 722 0
DWIDTH 27 0
BBX 26 26 1 0
BITMAP
FFE03FC0
3F000F00
1F000E00
0F000C00
0F801800
07801800
03C03000
03C02000
01E06000
00F0C000
00F0C000
00798000
007F0000
003F0000
001E0000
001E0000
001E0000
001E0000
001E0000
001E0000
001E0000
001E0000
001E0000
001E0000
003F0000
00FFC000
ENDCHAR

STARTCHAR Z
ENCODING 90
SWIDTH 611 0
DWIDTH 23 0
BBX 22 26 0 0
BITMAP
1FFFFC
1FFFF8
1800F0
1001F0
1001E0
1003C0
1007C0
000780
000F00
001E00
003E00
003C00
007800
00F800
00F000
01E000
03E000
03C000
078000
0F8004
0F0004
1E000C
3C0008
780018
7FFFF8
FFFFF8
ENDCHAR

STARTCHAR bracketleft
ENCODING 91
SWIDTH 333 0
DWIDTH 13 0
BBX 8 34 3 -8
BITMAP
FF
FF
E0
E0
E0
E0
E0
E0
E0
E0
E0
E0
E0
E0
E0
E0
E0
E0
E0
E0
E0
E0
E0
E0
E0
E0
E0
E0
E0
E0
E0
E0
FF
FF
ENDCHAR

STARTCHAR backslash
ENCODING 92
SWIDTH 278 0
DWIDTH 11 0
BBX 11 27 0 -1
BITMAP
C000
4000
6000
6000
2000
3000
3000
1000
1800
1800
0800
0C00
0C00
0400
0600
0600
0200
0300
0300
0100
0180
0180
0080
00C0
00C0
0040
0060
ENDCHAR

STARTCHAR bracketright
ENCODING 93
SWIDTH 333 0
DWIDTH 13 0
BBX 8 34 2 -8
BITMAP
FF
FF
07
07
07
07
07
07
07
07
07
07
07
07
07
07
07
07
07
07
07
07
07
07
07
07
07
07
07
07
07
07
FF
FF
ENDCHAR

STARTCHAR asciicircum
ENCODING 94
SWIDTH 469 0
DWIDTH 18 0
BBX 16 14 1 12
BITMAP
0100
0180
03C0
02C0
0660
0C20
0C30
1818
1818
300C
2004
6006
C002
C003
ENDCHAR

STARTCHAR underscore
ENCODING 95
SWIDTH 500 0
DWIDTH 19 0
BBX 19 2 0 -5
BITMAP
FFFFE0
FFFFE0
ENDCHAR

STARTCHAR quoteleft
ENCODING 96
SWIDTH 333 0
DWIDTH 13 0
BBX 6 10 3 16
BITMAP
08
10
20
40
C0
C0
F8
FC
7C
38
ENDCHAR

STARTCHAR a
ENCODING 97
SWIDTH 444 0
DWIDTH 17 0
BBX 16 18 1 0
BITMAP
0FE0
38F0
3078
7038
7038
7038
0038
01D8
0E38
1838
7038
7038
E038
E038
F079
F9D9
7F3E
3E1C
ENDCHAR

STARTCHAR b
ENCODING 98
SWIDTH 500 0
DWIDTH 19 0
BBX 18 27 0 0
BITMAP
040000
3C0000
FC0000
1C0000
1C0000
1C0000
1C0000
1C0000
1C0000
1C3800
1CFE00
1DFF00
1F0F80
1C0780
1C03C0
1C03C0
1C01C0
1C01C0
1C01C0
1C01C0
1C01C0
1C0180
1C0380
1C0300
1E0600
0F9C00
03F000
ENDCHAR

STARTCHAR c
ENCODING 99
SWIDTH 444 0
DWIDTH 17 0
BBX 14 18 1 0
BITMAP
07E0
1C78
383C
303C
603C
6000
E000
E000
E000
E000
F000
F004
7004
780C
3C18
3FF0
1FE0
0780
ENDCHAR

STARTCHAR d
ENCODING 100
SWIDTH 500 0
DWIDTH 19 0
BBX 18 27 1 0
BITMAP
000600
001E00
006E00
000E00
000E00
000E00
000E00
000E00
000E00
07EE00
0C3E00
181E00
301E00
700E00
700E00
E00E00
E00E00
E00E00
E00E00
F00E00
F00E00
F00E00
780E00
780E00
3E3F40
1FEF80
0F8C00
ENDCHAR

STARTCHAR e
ENCODING 101
SWIDTH 444 0
DWIDTH 17 0
BBX 15 18 1 0
BITMAP
07E0
1CF8
3038
303C
601C
601E
7FFE
E000
E000
E000
F000
7002
7804
7804
3E18
3FF8
1FF0
07C0
ENDCHAR

STARTCHAR f
ENCODING 102
SWIDTH 333 0
DWIDTH 13 0
BBX 15 26 2 0
BITMAP
01F8
063C
0C1E
0C0C
1C00
1C00
1C00
1C00
FFC0
1C00
1C00
1C00
1C00
1C00
1C00
1C00
1C00
1C00
1C00
1C00
1C00
1C00
1C00
1C00
3E00
FF80
ENDCHAR

STARTCHAR g
ENCODING 103
SWIDTH 500 0
DWIDTH 19 0
BBX 18 26 1 -8
BITMAP
03E000
0E3FC0
1C1F80
181E00
380E00
380E00
380E00
380E00
3C0E00
1C1C00
0E3800
07E000
080000
180000
380000
3FFE00
2FFF00
1FFF80
100180
200080
600080
E00180
F00300
7C0E00
3FFC00
0FF000
ENDCHAR

STARTCHAR h
ENCODING 104
SWIDTH 500 0
DWIDTH 19 0
BBX 19 27 0 0
BITMAP
0C0000
7C0000
BC0000
1C0000
1C0000
1C0000
1C0000
1C0000
1C0000
1C7C00
1CFE00
1D8F00
1E0700
1C0700
1C0700
1C0700
1C0700
1C0700
1C0700
1C0700
1C0700
1C0700
1C0700
1C0700
1C0700
3E0F80
FFBFE0
ENDCHAR

STARTCHAR i
ENCODING 105
SWIDTH 278 0
DWIDTH 11 0
BBX 9 26 1 0
BITMAP
1800
3C00
3C00
1800
0000
0000
0000
0000
0000
1C00
FC00
1C00
1C00
1C00
1C00
1C00
1C00
1C00
1C00
1C00
1C00
1C00
1C00
1C00
3E00
FF80
ENDCHAR

STARTCHAR j
ENCODING 106
SWIDTH 278 0
DWIDTH 11 0
BBX 10 35 -3 -9
BITMAP
0180
03C0
03C0
0180
0000
0000
0000
0000
0000
00C0
07C0
0BC0
01C0
01C0
01C0
01C0
01C0
01C0
01C0
01C0
01C0
01C0
01C0
01C0
01C0
01C0
01C0
01C0
01C0
01C0
0180
6180
F300
FE00
3800
ENDCHAR

STARTCHAR k
ENCODING 107
SWIDTH 500 0
DWIDTH 19 0
BBX 19 27 0 0
BITMAP
1C0000
FC0000
1C0000
1C0000
1C0000
1C0000
1C0000
1C0000
1C0000
1C1FC0
1C0E00
1C0C00
1C1800
1C3000
1C6000
1CC000
1DC000
1DC000
1DE000
1CF000
1C7800
1C7800
1C3C00
1C1E00
1C0F00
3E0F80
FF9FE0
ENDCHAR

STARTCHAR l
ENCODING 108
SWIDTH 278 0
DWIDTH 11 0
BBX 9 27 1 0
BITMAP
0400
1C00
FC00
1C00
1C00
1C00
1C00
1C00
1C00
1C00
1C00
1C00
1C00
1C00
1C00
1C00
1C00
1C00
1C00
1C00
1C00
1C00
1C00
1C00
1C00
3E00
FF80
ENDCHAR

STARTCHAR m
ENCODING 109
SWIDTH 778 0
DWIDTH 30 0
BBX 30 18 0 0
BITMAP
0C3C0F80
7CFF3FC0
BD8F63E0
1E0741E0
1C0780E0
1C0780E0
1C0780E0
1C0780E0
1C0780E0
1C0780E0
1C0780E0
1C0780E0
1C0780E0
1C0780E0
1C0780E0
1C0780E0
3E0781F0
FF9FE7FC
ENDCHAR

STARTCHAR n
ENCODING 110
SWIDTH 500 0
DWIDTH 19 0
BBX 19 18 0 0
BITMAP
0C7C00
7CFE00
BD8F00
1E0700
1C0700
1C0700
1C0700
1C0700
1C0700
1C0700
1C0700
1C0700
1C0700
1C0700
1C0700
1C0700
3E0F80
FFBFE0
ENDCHAR

STARTCHAR o
ENCODING 111
SWIDTH 500 0
DWIDTH 19 0
BBX 16 18 2 0
BITMAP
07E0
1C78
383C
701E
700E
E00F
E00F
E007
E007
E007
F007
F007
F007
700E
780E
3C1C
1E38
07E0
ENDCHAR

STARTCHAR p
ENCODING 112
SWIDTH 500 0
DWIDTH 19 0
BBX 18 26 0 -8
BITMAP
0C3C00
3CFE00
FDFF00
1F0F80
1E0780
1C03C0
1C03C0
1C01C0
1C01C0
1C01C0
1C01C0
1C01C0
1C0180
1C0380
1C0380
1E0700
1F0E00
1CF800
1C0000
1C0000
1C0000
1C0000
1C0000
1C0000
3E0000
FF8000
ENDCHAR

STARTCHAR q
ENCODING 113
SWIDTH 500 0
DWIDTH 19 0
BBX 18 25 1 -7
BITMAP
07F600
0E3E00
381E00
300E00
700E00
600E00
E00E00
E00E00
E00E00
E00E00
E00E00
F00E00
F00E00
780E00
7C3600
3FEE00
1FCE00
070E00
000E00
000E00
000E00
000E00
000E00
000E00
007FC0
ENDCHAR

STARTCHAR r
ENCODING 114
SWIDTH 333 0
DWIDTH 13 0
BBX 13 18 0 0
BITMAP
0C70
3CF8
FDF8
1E30
1E00
1C00
1C00
1C00
1C00
1C00
1C00
1C00
1C00
1C00
1C00
1C00
3E00
FF80
ENDCHAR

STARTCHAR s
ENCODING 115
SWIDTH 389 0
DWIDTH 15 0
BBX 12 18 2 0
BITMAP
1F20
61E0
40E0
C060
E020
E020
F800
7E00
3F80
1FC0
03E0
01F0
80F0
8070
C070
C060
F0C0
DF80
ENDCHAR

STARTCHAR t
ENCODING 116
SWIDTH 278 0
DWIDTH 11 0
BBX 11 24 0 0
BITMAP
0400
0400
0C00
0C00
1C00
3C00
FFC0
1C00
1C00
1C00
1C00
1C00
1C00
1C00
1C00
1C00
1C00
1C00
1C00
1C00
1C20
1E40
0F80
0700
ENDCHAR

STARTCHAR u
ENCODING 117
SWIDTH 500 0
DWIDTH 19 0
BBX 19 18 0 0
BITMAP
FC3F00
1C0700
1C0700
1C0700
1C0700
1C0700
1C0700
1C0700
1C0700
1C0700
1C0700
1C0700
1C0700
1C0700
1E0B00
0E37A0
0FE7C0
07C600
ENDCHAR

STARTCHAR v
ENCODING 118
SWIDTH 500 0
DWIDTH 19 0
BBX 19 18 0 0
BITMAP
FF07E0
3E0180
1E0100
0E0100
0E0300
0F0200
070600
070400
038400
038C00
03C800
01D800
01F000
00F000
00F000
006000
006000
004000
ENDCHAR

STARTCHAR w
ENCODING 119
SWIDTH 722 0
DWIDTH 27 0
BBX 27 18 0 0
BITMAP
FE3FC3E0
3C0F00C0
3C0F0180
1C070180
1C070100
1E078300
0E078200
0E0D8200
0709C600
0719C400
0791EC00
03B0E800
03A0F800
01E07800
01C07000
01C07000
00803000
00802000
ENDCHAR

STARTCHAR x
ENCODING 120
SWIDTH 500 0
DWIDTH 19 0
BBX 18 18 1 0
BITMAP
FF3F00
3E1C00
1E1800
0E1000
0F3000
07E000
03C000
03C000
01C000
01E000
037000
067000
047800
083C00
181C00
301E00
701F00
FC3FC0
ENDCHAR

STARTCHAR y
ENCODING 121
SWIDTH 500 0
DWIDTH 19 0
BBX 19 25 0 -7
BITMAP
FF07E0
3C0180
1C0180
1E0300
0E0300
0E0200
070600
070600
038C00
038C00
01C800
01D800
00F000
00F000
007000
006000
006000
004000
00C000
00C000
018000
3B8000
7F0000
7E0000
380000
ENDCHAR

STARTCHAR z
ENCODING 122
SWIDTH 444 0
DWIDTH 17 0
BBX 15 18 1 0
BITMAP
7FFE
601E
403C
4078
4070
00F0
01E0
01C0
03C0
0780
0700
0F00
1E00
3C02
3802
7802
F00E
FFFE
ENDCHAR

STARTCHAR braceleft
ENCODING 123
SWIDTH 480 0
DWIDTH 18 0
BBX 10 34 4 -8
BITMAP
01C0
0200
0600
0C00
0C00
1C00
1C00
1C00
0C00
0E00
0E00
0E00
0E00
0C00
0800
1000
E000
6000
1800
0C00
0C00
0E00
0E00
0E00
0E00
1E00
1C00
1C00
1C00
0C00
0C00
0600
0300
01C0
ENDCHAR

STARTCHAR bar
ENCODING 124
SWIDTH 200 0
DWIDTH 8 0
BBX 2 34 3 -8
BITMAP
C0
C0
C0
C0
C0
C0
C0
C0
C0
C0
C0
C0
C0
C0
C0
C0
C0
C0
C0
C0
C0
C0
C0
C0
C0
C0
C0
C0
C0
C0
C0
C0
C0
C0
ENDCHAR

STARTCHAR braceright
ENCODING 125
SWIDTH 480 0
DWIDTH 18 0
BBX 10 34 4 -8
BITMAP
E000
1000
1800
0C00
0C00
0E00
0E00
0E00
0E00
1C00
1C00
1C00
0C00
0C00
0400
0200
01C0
0180
0600
0C00
0C00
1C00
1C00
1C00
1C00
0E00
0E00
0E00
0E00
0C00
0C00
1800
3000
E000
ENDCHAR

STARTCHAR asciitilde
ENCODING 126
SWIDTH 541 0
DWIDTH 21 0
BBX 19 6 1 10
BITMAP
1E0020
3F8020
7FE040
C0FFC0
803F80
800E00
ENDCHAR

STARTCHAR space
ENCODING 160
SWIDTH 250 0
DWIDTH 11 0
BBX 0 0 0 0
BITMAP
ENDCHAR

STARTCHAR Aogonek
ENCODING 161
SWIDTH 722 0
DWIDTH 27 0
BBX 28 33 0 -7
BITMAP
00040000
00060000
000E0000
000E0000
001F0000
001F0000
00178000
00378000
0023C000
0063C000
0061C000
00C1E000
00C1E000
0080F000
0180F000
01007000
03FFF800
03003800
06003C00
06003C00
04001E00
0C001E00
08001E00
18000F00
3C001F80
FF007FE0
00000800
00001800
00001800
00001C00
00001E00
00000FF0
00000380
ENDCHAR

STARTCHAR breve
ENCODING 162
SWIDTH 333 0
DWIDTH 13 0
BBX 11 5 1 20
BITMAP
8060
C0C0
7FC0
3F80
1E00
ENDCHAR

STARTCHAR Lslash
ENCODING 163
SWIDTH 611 0
DWIDTH 23 0
BBX 22 26 0 0
BITMAP
7FF000
0F8000
0F0000
0F0000
0F0000
0F0000
0F0000
0F1000
0F3000
0F6000
0F4000
0F8000
0F0000
0F0000
1F0000
3F0000
6F0000
CF0000
8F0000
0F0004
0F0004
0F0008
0F0018
0F0038
1FFFF8
7FFFF0
ENDCHAR

STARTCHAR currency
ENCODING 164
SWIDTH 500 0
DWIDTH 19 0
BBX 18 19 1 3
BITMAP
400040
C1E0C0
67F980
1C0E00
380300
300300
600180
600080
400080
400080
400080
600180
600180
300300
180700
3C0F00
67F980
C1E0C0
400040
ENDCHAR

STARTCHAR Lcaron
ENCODING 165
SWIDTH 611 0
DWIDTH 23 0
BBX 21 26 1 0
BITMAP
FFE1C0
1F03E0
1E03E0
1E03E0
1E0020
1E0020
1E0060
1E00C0
1E0180
1E0200
1E0000
1E0000
1E0000
1E0000
1E0000
1E0000
1E0000
1E0000
1E0000
1E0008
1E0010
1E0010
1E0030
1E0070
3FFFE0
FFFFE0
ENDCHAR

STARTCHAR Sacute
ENCODING 166
SWIDTH 556 0
DWIDTH 21 0
BBX 17 33 2 0
BITMAP
00F000
01C000
01C000
018000
030000
020000
000000
07C100
1FFB00
381F00
700F00
E00700
E00300
E00300
F00100
F80100
7C0000
7F0000
3FC000
0FF000
07F800
01FE00
007F00
001F00
000F80
800780
800380
C00380
C00380
E00700
F00F00
FE3C00
87F800
ENDCHAR

STARTCHAR section
ENCODING 167
SWIDTH 500 0
DWIDTH 19 0
BBX 14 33 2 -7
BITMAP
0780
0860
1060
3070
3070
3020
3800
3C00
1E00
0F80
1FC0
33E0
61F0
4078
C03C
C01C
E01C
E00C
700C
7808
3E18
1F30
0FC0
03C0
01E0
00F0
0070
1830
3830
3830
1820
0840
0780
ENDCHAR

STARTCHAR dieresis
ENCODING 168
SWIDTH 333 0
DWIDTH 13 0
BBX 10 4 1 21
BITMAP
6180
F3C0
F3C0
6180
ENDCHAR

STARTCHAR Scaron
ENCODING 169
SWIDTH 556 0
DWIDTH 21 0
BBX 17 33 2 0
BITMAP
180C00
0C1800
063000
07B000
03E000
03C000
000000
07C100
1FFB00
381F00
700F00
E00700
E00300
E00300
F00100
F80100
7C0000
7F0000
3FC000
0FF000
07F800
01FE00
007F00
001F00
000F80
800780
800380
C00380
C00380
E00700
F00F00
FE3C00
87F800
ENDCHAR

STARTCHAR Scommaaccent
ENCODING 170
SWIDTH 556 0
DWIDTH 21 0
BBX 17 35 2 -9
BITMAP
07C100
1FFB00
381F00
700700
E00700
E00300
E00300
F00100
F80100
7E0000
7F0000
3FC000
0FF000
07FC00
01FE00
007F00
001F80
000F80
800780
800380
C00380
C00380
E00700
F00700
FE1E00
87F800
000000
000000
01E000
01E000
01E000
002000
002000
00C000
010000
ENDCHAR

STARTCHAR Tcaron
ENCODING 171
SWIDTH 611 0
DWIDTH 23 0
BBX 21 34 2 0
BITMAP
040200
020600
038C00
01D800
01F800
00F000
000000
000000
FFFFF0
FFFFF0
C0F030
80F018
80F008
80F008
00F000
00F000
00F000
00F000
00F000
00F000
00F000
00F000
00F000
00F000
00F000
00F000
00F000
00F000
00F000
00F000
00F000
00F000
01F800
07FE00
ENDCHAR

STARTCHAR Zacute
ENCODING 172
SWIDTH 611 0
DWIDTH 23 0
BBX 22 34 0 0
BITMAP
001F00
001E00
001C00
001800
003000
002000
000000
000000
1FFFFC
1FFFF8
1800F0
1001F0
1001E0
1003C0
1007C0
000780
000F00
001E00
003E00
003C00
007800
00F800
00F000
01E000
03E000
03C000
078000
0F8004
0F0004
1E000C
3C0008
780018
7FFFF8
FFFFF8
ENDCHAR

STARTCHAR hyphen
ENCODING 173
SWIDTH 333 0
DWIDTH 13 0
BBX 9 3 2 7
BITMAP
FF80
FF80
FF80
ENDCHAR

STARTCHAR Zcaron
ENCODING 174
SWIDTH 611 0
DWIDTH 23 0
BBX 22 34 0 0
BITMAP
010080
018100
00C300
007600
007E00
003C00
000000
000000
1FFFFC
1FFFF8
1800F0
1001F0
1001E0
1003C0
1007C0
000780
000F00
001E00
003E00
003C00
007800
00F800
00F000
01E000
03E000
03C000
078000
0F8004
0F0004
1E000C
3C0008
380018
7FFFF8
FFFFF8
ENDCHAR

STARTCHAR Zdotaccent
ENCODING 175
SWIDTH 611 0
DWIDTH 23 0
BBX 21 32 1 0
BITMAP
003000
007800
007800
003000
000000
000000
3FFFF8
3FFFF0
3001E0
2003E0
2003C0
200780
200F80
000F00
001E00
003E00
003C00
007800
00F000
01F000
01E000
03C000
07C000
078000
0F0000
1F0008
1E0008
3C0018
7C0018
700030
FFFFF0
FFFFF0
ENDCHAR

STARTCHAR degree
ENCODING 176
SWIDTH 400 0
DWIDTH 15 0
BBX 12 12 2 14
BITMAP
0F00
3FC0
70E0
6060
C030
C030
C030
C030
6060
70E0
3FC0
0F00
ENDCHAR

STARTCHAR aogonek
ENCODING 177
SWIDTH 444 0
DWIDTH 17 0
BBX 18 25 1 -7
BITMAP
0FE000
38F000
307800
703800
703800
703800
007800
03D800
0E3800
183800
703800
E03800
E03800
E03800
F07900
79BF00
7F3E00
3E3800
002000
006000
006000
007000
007800
003FC0
000E00
ENDCHAR

STARTCHAR ogonek
ENCODING 178
SWIDTH 333 0
DWIDTH 13 0
BBX 9 7 3 -7
BITMAP
6000
C000
C000
E000
F000
7F80
1C00
ENDCHAR

STARTCHAR lslash
ENCODING 179
SWIDTH 278 0
DWIDTH 11 0
BBX 9 27 1 0
BITMAP
0400
1C00
FC00
1C00
1C00
1C00
1C00
1C00
1C00
1C80
1C80
1F00
1E00
1C00
1C00
3C00
DC00
9C00
9C00
1C00
1C00
1C00
1C00
1C00
1C00
3E00
FF80
ENDCHAR

STARTCHAR acute
ENCODING 180
SWIDTH 333 0
DWIDTH 13 0
BBX 6 6 4 21
BITMAP
3C
38
70
60
40
C0
ENDCHAR

STARTCHAR lcaron
ENCODING 181
SWIDTH 346 0
DWIDTH 13 0
BBX 12 26 1 0
BITMAP
1CE0
7CF0
BCF0
1C10
1C10
1C20
1C40
1C80
1C00
1C00
1C00
1C00
1C00
1C00
1C00
1C00
1C00
1C00
1C00
1C00
1C00
1C00
1C00
1C00
3E00
FF80
ENDCHAR

STARTCHAR sacute
ENCODING 182
SWIDTH 389 0
DWIDTH 15 0
BBX 12 26 2 0
BITMAP
03C0
0780
0700
0600
0C00
0800
0000
0000
1F60
61E0
40E0
C060
C020
E020
F800
7E00
3F80
1FC0
07E0
01F0
80F0
8070
C070
C060
F0C0
BF80
ENDCHAR

STARTCHAR caron
ENCODING 183
SWIDTH 333 0
DWIDTH 13 0
BBX 11 6 1 21
BITMAP
8060
60C0
3180
3B80
1F00
1E00
ENDCHAR

STARTCHAR commaaccent
ENCODING 184
SWIDTH 333 0
DWIDTH 13 0
BBX 4 7 5 -9
BITMAP
E0
F0
F0
10
10
20
C0
ENDCHAR

STARTCHAR scaron
ENCODING 185
SWIDTH 389 0
DWIDTH 15 0
BBX 12 26 2 0
BITMAP
C020
6040
38C0
1D80
1F80
0F00
0000
0000
1F60
61E0
40E0
C060
C020
E020
F800
7E00
3F80
1FC0
07E0
01F0
80F0
8070
C070
C060
F0C0
BF80
ENDCHAR

STARTCHAR scommaaccent
ENCODING 186
SWIDTH 389 0
DWIDTH 15 0
BBX 12 26 2 -8
BITMAP
1F20
61E0
6060
C060
E020
E020
F800
7E00
3F80
0FC0
03E0
01F0
8070
8070
C070
E060
F0C0
9F80
0000
0E00
0F00
0F00
0100
0100
0600
0800
ENDCHAR

STARTCHAR tcaron
ENCODING 187
SWIDTH 278 0
DWIDTH 11 0
BBX 11 26 0 0
BITMAP
01C0
01E0
01E0
0420
0420
0CC0
1D00
3C00
FFC0
1C00
1C00
1C00
1C00
1C00
1C00
1C00
1C00
1C00
1C00
1C00
1C00
1C00
1C40
1E40
0F80
0F00
ENDCHAR

STARTCHAR zacute
ENCODING 188
SWIDTH 444 0
DWIDTH 17 0
BBX 15 27 1 0
BITMAP
01F0
01C0
0180
0380
0300
0200
0000
0000
0000
7FFE
601E
403C
4078
4070
00F0
01E0
01C0
03C0
0780
0700
0F00
1E00
3C02
3802
7802
F00E
FFFE
ENDCHAR

STARTCHAR hungarumlaut
ENCODING 189
SWIDTH 333 0
DWIDTH 13 0
BBX 10 6 2 21
BITMAP
71C0
6380
E380
C300
8200
8200
ENDCHAR

STARTCHAR zcaron
ENCODING 190
SWIDTH 444 0
DWIDTH 17 0
BBX 15 27 1 0
BITMAP
2008
1810
0C60
0EE0
07C0
07C0
0000
0000
0000
7FFE
601E
403C
4078
4070
00F0
01E0
01C0
03C0
0780
0700
0F00
1E00
3C02
3802
7802
F00E
FFFE
ENDCHAR

STARTCHAR zdotaccent
ENCODING 191
SWIDTH 444 0
DWIDTH 17 0
BBX 16 26 0 0
BITMAP
0180
03C0
03C0
0180
0000
0000
0000
0000
7FFF
701E
601C
403C
4078
0070
00F0
01E0
03C0
0380
0780
0F00
0E00
1E02
3C02
3802
7006
FFFE
ENDCHAR

STARTCHAR Racute
ENCODING 192
SWIDTH 667 0
DWIDTH 25 0
BBX 24 34 1 0
BITMAP
007C00
007000
006000
006000
00C000
008000
000000
000000
FFFE00
1E0F80
1E07C0
1E03C0
1E01E0
1E01E0
1E01E0
1E01E0
1E01E0
1E03E0
1E03C0
1E0780
1E3F00
1FF800
1E3C00
1E3C00
1E1E00
1E0F00
1E0700
1E0780
1E03C0
1E01E0
1E01E0
1E00F0
1E007C
FFC03F
ENDCHAR

STARTCHAR Aacute
ENCODING 193
SWIDTH 722 0
DWIDTH 27 0
BBX 27 34 0 0
BITMAP
0003C000
00078000
00070000
00060000
000C0000
000C0000
00080000
00000000
00040000
00060000
000E0000
000E0000
001F0000
001F0000
00178000
00378000
0033C000
0063C000
0061C000
00C1E000
00C0E000
0080F000
0180F000
01007800
03FFF800
03003800
06003C00
06003C00
04001E00
0C001E00
0C000F00
18000F00
3C001F80
FF007FE0
ENDCHAR

STARTCHAR Acircumflex
ENCODING 194
SWIDTH 722 0
DWIDTH 27 0
BBX 27 33 0 0
BITMAP
001F0000
001F8000
003B8000
0020C000
00404000
00402000
00000000
00040000
00060000
000E0000
000E0000
001F0000
001F0000
00178000
00378000
0023C000
0063C000
0061C000
00C1E000
00C1E000
0080F000
0180F000
01007000
03FFF800
03003800
06003C00
06003C00
04001E00
0C001E00
0C001E00
18000F00
3C001F80
FF007FE0
ENDCHAR

STARTCHAR Abreve
ENCODING 195
SWIDTH 722 0
DWIDTH 27 0
BBX 27 33 0 0
BITMAP
00C02000
00606000
007FC000
003F8000
001F0000
00000000
00000000
00040000
00060000
000E0000
000E0000
001F0000
001F0000
00178000
00378000
0033C000
0063C000
0061C000
00C1E000
00C0E000
0080F000
0180F000
01007800
03FFF800
03003800
06003C00
06003C00
04001E00
0C001E00
0C000F00
18000F00
3C001F80
FF007FE0
ENDCHAR

STARTCHAR Adieresis
ENCODING 196
SWIDTH 722 0
DWIDTH 27 0
BBX 27 32 0 0
BITMAP
0071C000
00F1E000
00F1E000
0060C000
00000000
00000000
00040000
000C0000
000E0000
000E0000
001F0000
001F0000
00378000
00378000
00638000
0063C000
00C3C000
00C1E000
0081E000
0180F000
0100F000
03007000
03FFF800
06003800
06003C00
04003C00
0C001E00
08001E00
18001E00
18000F00
38001F80
FF007FE0
ENDCHAR

STARTCHAR Lacute
ENCODING 197
SWIDTH 611 0
DWIDTH 23 0
BBX 21 34 1 0
BITMAP
007800
00F000
00E000
00C000
018000
010000
000000
000000
FFE000
1F0000
1E0000
1E0000
1E0000
1E0000
1E0000
1E0000
1E0000
1E0000
1E0000
1E0000
1E0000
1E0000
1E0000
1E0000
1E0000
1E0000
1E0000
1E0008
1E0008
1E0010
1E0030
1E0070
3FFFF0
FFFFE0
ENDCHAR

STARTCHAR Cacute
ENCODING 198
SWIDTH 667 0
DWIDTH 25 0
BBX 23 34 1 0
BITMAP
000F80
000F00
000E00
001C00
001800
001000
001000
000000
00FF84
03E1EC
07003C
0E001C
1C000C
3C000C
780004
780004
780000
F00000
F00000
F00000
F00000
F00000
F00000
F00000
F80000
780000
780000
7C0002
3C0004
1E0008
0F0010
07C060
01FFC0
007E00
ENDCHAR

STARTCHAR Ccedilla
ENCODING 199
SWIDTH 667 0
DWIDTH 25 0
BBX 22 32 2 -6
BITMAP
00FF08
03C1E8
070078
0E0038
1C0018
3C0008
78000C
780004
780000
F00000
F00000
F00000
F00000
F00000
F00000
F00000
F00000
780000
780000
780004
3C0004
1E0008
1F0030
0F8060
03FFC0
007E00
007800
003C00
001C00
001C00
003800
01E000
ENDCHAR

STARTCHAR Ccaron
ENCODING 200
SWIDTH 667 0
DWIDTH 25 0
BBX 23 34 1 0
BITMAP
010040
008080
006180
007300
003E00
003E00
000000
000000
00FF84
03E1EC
07003C
0E001C
1C000C
3C000C
780004
780004
780000
F00000
F00000
F00000
F00000
F00000
F00000
F00000
F80000
780000
780000
7C0002
3C0004
1E0008
0F0010
07C060
01FFC0
007E00
ENDCHAR

STARTCHAR Eacute
ENCODING 201
SWIDTH 611 0
DWIDTH 23 0
BBX 21 34 1 0
BITMAP
003E00
003800
003000
006000
004000
004000
000000
000000
FFFFE0
1E00E0
1E0020
1E0020
1E0020
1E0020
1E0000
1E0000
1E0080
1E0080
1E0080
1E0380
1FFF80
1E0380
1E0080
1E0080
1E0080
1E0000
1E0000
1E0000
1E0008
1E0018
1E0010
1E0030
1E00F0
FFFFE0
ENDCHAR

STARTCHAR Eogonek
ENCODING 202
SWIDTH 611 0
DWIDTH 23 0
BBX 21 33 1 -7
BITMAP
FFFFE0
1E00E0
1E0060
1E0020
1E0020
1E0020
1E0000
1E0000
1E0080
1E0080
1E0180
1E0380
1FFF80
1E0380
1E0180
1E0080
1E0080
1E0000
1E0000
1E0000
1E0008
1E0010
1E0030
1E0060
1E01E0
FFFFE0
000400
000C00
000C00
000E00
000F00
0007F8
0001C0
ENDCHAR

STARTCHAR Edieresis
ENCODING 203
SWIDTH 611 0
DWIDTH 23 0
BBX 21 32 1 0
BITMAP
038600
078F00
078F00
030600
000000
000000
FFFFE0
1E00E0
1E0020
1E0020
1E0020
1E0020
1E0000
1E0000
1E0080
1E0080
1E0080
1E0380
1FFF80
1E0180
1E0080
1E0080
1E0080
1E0000
1E0000
1E0000
1E0008
1E0008
1E0010
1E0030
1F00F0
FFFFE0
ENDCHAR

STARTCHAR Ecaron
ENCODING 204
SWIDTH 611 0
DWIDTH 23 0
BBX 21 34 1 0
BITMAP
060300
030600
018C00
01E800
00F800
007000
000000
000000
FFFFE0
1E00E0
1E0020
1E0020
1E0020
1E0020
1E0000
1E0000
1E0080
1E0080
1E0080
1E0380
1FFF80
1E0380
1E0080
1E0080
1E0080
1E0000
1E0000
1E0000
1E0008
1E0018
1E0010
1E0030
1E00F0
FFFFE0
ENDCHAR

STARTCHAR Iacute
ENCODING 205
SWIDTH 333 0
DWIDTH 13 0
BBX 10 34 1 0
BITMAP
0780
0700
0E00
0C00
0800
1000
0000
0000
FFC0
1F00
1E00
1E00
1E00
1E00
1E00
1E00
1E00
1E00
1E00
1E00
1E00
1E00
1E00
1E00
1E00
1E00
1E00
1E00
1E00
1E00
1E00
1E00
3F00
FFC0
ENDCHAR

STARTCHAR Icircumflex
ENCODING 206
SWIDTH 333 0
DWIDTH 13 0
BBX 10 34 1 0
BITMAP
1E00
3F00
3700
6380
4180
8040
0000
0000
FFC0
1F00
1E00
1E00
1E00
1E00
1E00
1E00
1E00
1E00
1E00
1E00
1E00
1E00
1E00
1E00
1E00
1E00
1E00
1E00
1E00
1E00
1E00
1E00
3F00
FFC0
ENDCHAR

STARTCHAR Dcaron
ENCODING 207
SWIDTH 722 0
DWIDTH 27 0
BBX 25 34 1 0
BITMAP
03018000
01830000
00E60000
00760000
007C0000
003C0000
00000000
00000000
FFFF8000
1F07E000
1E00F800
1E007C00
1E003E00
1E001E00
1E000F00
1E000F00
1E000F80
1E000780
1E000780
1E000780
1E000780
1E000780
1E000780
1E000780
1E000F80
1E000F00
1E000F00
1E001F00
1E001E00
1E003C00
1E007C00
1E01F000
1F07E000
FFFF0000
ENDCHAR

STARTCHAR Dcroat
ENCODING 208
SWIDTH 722 0
DWIDTH 27 0
BBX 25 26 1 0
BITMAP
FFFF8000
1F07E000
1E00F800
1E007C00
1E003E00
1E001E00
1E001F00
1E000F00
1E000F80
1E000780
1E000780
1E000780
FFFC0780
1E000780
1E000780
1E000780
1E000780
1E000F80
1E000F00
1E001F00
1E001E00
1E003C00
1E007800
1E00F000
1F07E000
FFFF0000
ENDCHAR

STARTCHAR Nacute
ENCODING 209
SWIDTH 722 0
DWIDTH 27 0
BBX 27 34 -1 0
BITMAP
0003C000
00078000
00070000
00060000
000C0000
00080000
00000000
00000000
FE001FE0
1F000300
0F800300
07C00300
07C00300
07E00300
06F00300
06F80300
067C0300
063C0300
061E0300
060F0300
060F8300
0607C300
0603C300
0601E300
0601F300
0600FB00
06007B00
06003F00
06001F00
06001F00
06000F00
06000700
0F000300
3FC00100
ENDCHAR

STARTCHAR Ncaron
ENCODING 210
SWIDTH 722 0
DWIDTH 27 0
BBX 27 34 -1 0
BITMAP
00601000
00306000
0018C000
001DC000
000F8000
000F8000
00000000
00000000
FE001FE0
1F000300
0F800300
07C00300
07C00300
07E00300
06F00300
06F80300
067C0300
063C0300
061E0300
060F0300
060F8300
0607C300
0603C300
0601E300
0601F300
0600FB00
06007B00
06003F00
06001F00
06001F00
06000F00
06000700
0F000300
3FC00100
ENDCHAR

STARTCHAR Oacute
ENCODING 211
SWIDTH 722 0
DWIDTH 27 0
BBX 24 34 2 0
BITMAP
000F00
000E00
001C00
001800
001000
003000
002000
000000
00FF00
03C3C0
0700F0
1E0078
1C003C
38001C
78001E
78001E
70000F
F0000F
F0000F
F0000F
F0000F
F0000F
F0000F
F0000F
F0000F
78000E
78001E
78001E
3C001C
1C0038
1E0070
0F00E0
03C3C0
00FF00
ENDCHAR

STARTCHAR Ocircumflex
ENCODING 212
SWIDTH 722 0
DWIDTH 27 0
BBX 24 34 2 0
BITMAP
003C00
003C00
007E00
00E600
008300
010180
000000
000000
00FF00
03C3C0
0700F0
1E0078
1C003C
38001C
78001E
78001E
70000F
F0000F
F0000F
F0000F
F0000F
F0000F
F0000F
F0000F
F0000F
78000E
78001E
78001E
3C001C
1C0038
1E0070
0F00E0
03C3C0
00FF00
ENDCHAR

STARTCHAR Ohungarumlaut
ENCODING 213
SWIDTH 722 0
DWIDTH 27 0
BBX 24 34 2 0
BITMAP
0079C0
0071C0
006180
006300
00C300
008200
008200
000000
00FF00
03C3C0
0700F0
1E0078
1C003C
38001C
78001E
78001E
70000F
F0000F
F0000F
F0000F
F0000F
F0000F
F0000F
F0000F
F0000F
78000E
78001E
78001E
3C001C
1C0038
1E0070
0F00E0
03C3C0
00FF00
ENDCHAR

STARTCHAR Odieresis
ENCODING 214
SWIDTH 722 0
DWIDTH 27 0
BBX 24 32 2 0
BITMAP
00C300
01E780
01E780
00C300
000000
000000
00FF00
03C3C0
0700F0
0E0078
1C0038
3C003C
78001E
78001E
78001F
F0000F
F0000F
F0000F
F0000F
F0000F
F0000F
F0000F
F8000F
78001E
78001E
78001E
3C003C
1C0038
1E0070
0700E0
03C3C0
00FF00
ENDCHAR

STARTCHAR multiply
ENCODING 215
SWIDTH 564 0
DWIDTH 21 0
BBX 15 15 3 5
BITMAP
C002
600E
301C
1838
0C70
06E0
01C0
0380
0740
0E60
1C30
3818
700C
E006
4002
ENDCHAR

STARTCHAR Rcaron
ENCODING 216
SWIDTH 667 0
DWIDTH 25 0
BBX 24 34 1 0
BITMAP
060200
030400
018C00
01D800
00F800
00F000
000000
000000
FFFE00
1E0F80
1E07C0
1E03C0
1E01E0
1E01E0
1E01E0
1E01E0
1E01E0
1E03E0
1E03C0
1E0780
1E1F00
1FF800
1E3C00
1E3C00
1E1E00
1E0F00
1E0700
1E0780
1E03C0
1E01E0
1E01E0
1E00F0
1E007C
FFC03F
ENDCHAR

STARTCHAR Uring
ENCODING 217
SWIDTH 722 0
DWIDTH 27 0
BBX 26 34 1 0
BITMAP
001F0000
00318000
00208000
00208000
00308000
00318000
001E0000
00000000
FFC07FC0
1E000700
1E000600
1E000600
1E000600
1E000600
1E000600
1E000600
1E000600
1E000600
1E000600
1E000600
1E000600
1E000600
1E000600
1E000600
1E000600
1E000600
1E000600
0E000400
0E000C00
0F000C00
07003800
03C07000
01FFC000
003F0000
ENDCHAR

STARTCHAR Uacute
ENCODING 218
SWIDTH 722 0
DWIDTH 27 0
BBX 26 34 1 0
BITMAP
00078000
00070000
000E0000
000C0000
00080000
00100000
00000000
00000000
FFC03FC0
1F000700
1E000600
1E000600
1E000600
1E000600
1E000600
1E000600
1E000600
1E000600
1E000600
1E000600
1E000600
1E000600
1E000600
1E000600
1E000600
1E000600
1E000600
0E000400
0F000C00
0F000C00
07801800
03C07000
01FFE000
003F0000
ENDCHAR

STARTCHAR Uhungarumlaut
ENCODING 219
SWIDTH 722 0
DWIDTH 27 0
BBX 26 34 1 0
BITMAP
001CF000
0038E000
0038C000
0030C000
00208000
00618000
00000000
00000000
FFC03FC0
1F000700
1E000600
1E000600
1E000600
1E000600
1E000600
1E000600
1E000600
1E000600
1E000600
1E000600
1E000600
1E000600
1E000600
1E000600
1E000600
1E000600
1E000600
0E000400
0F000C00
0F000C00
07801800
03C07000
01FFE000
003F0000
ENDCHAR

STARTCHAR Udieresis
ENCODING 220
SWIDTH 722 0
DWIDTH 27 0
BBX 26 32 1 0
BITMAP
0030C000
0079E000
0079E000
0030C000
00000000
00000000
FFE07FC0
1F000700
1E000600
1E000600
1E000600
1E000600
1E000600
1E000600
1E000600
1E000600
1E000600
1E000600
1E000600
1E000600
1E000600
1E000600
1E000600
1E000600
1E000600
0E000400
0F000C00
0F000C00
07801800
03C07000
01FFE000
003F0000
ENDCHAR

STARTCHAR Yacute
ENCODING 221
SWIDTH 722 0
DWIDTH 27 0
BBX 26 34 1 0
BITMAP
0003C000
00078000
00070000
00060000
000C0000
00080000
00000000
00000000
FFE03FC0
3F000F00
1F000E00
0F000C00
0F801800
07801800
03C03000
03C02000
01E06000
01F0C000
00F0C000
00798000
007F0000
003F0000
001E0000
001E0000
001E0000
001E0000
001E0000
001E0000
001E0000
001E0000
001E0000
001E0000
003F0000
00FFC000
ENDCHAR

STARTCHAR Tcommaaccent
ENCODING 222
SWIDTH 611 0
DWIDTH 23 0
BBX 21 35 2 -9
BITMAP
FFFFF0
FFFFF0
C0F030
80F018
80F008
80F008
00F000
00F000
00F000
00F000
00F000
00F000
00F000
00F000
00F000
00F000
00F000
00F000
00F000
00F000
00F000
00F000
00F000
00F000
01F800
07FE00
000000
000000
00E000
00F000
00F000
001000
001000
002000
00C000
ENDCHAR

STARTCHAR germandbls
ENCODING 223
SWIDTH 500 0
DWIDTH 19 0
BBX 18 26 0 0
BITMAP
03F800
071C00
0E0E00
0E0700
1C0700
1C0700
1C0700
1C0700
1C0600
1C0E00
1C3800
1C7C00
1C0F00
1C0700
1C0380
1C0380
1C03C0
1C01C0
1C01C0
1C01C0
1C01C0
1C01C0
1CE180
1CE300
3CE700
FC3C00
ENDCHAR

STARTCHAR racute
ENCODING 224
SWIDTH 333 0
DWIDTH 13 0
BBX 13 26 0 0
BITMAP
03E0
0380
0300
0700
0600
0400
0000
0000
0470
3CF8
FDF8
1E30
1E00
1C00
1C00
1C00
1C00
1C00
1C00
1C00
1C00
1C00
1C00
1C00
3E00
FF80
ENDCHAR

STARTCHAR aacute
ENCODING 225
SWIDTH 444 0
DWIDTH 17 0
BBX 16 26 1 0
BITMAP
01F0
01C0
0380
0300
0200
0600
0000
0000
0FE0
38F0
7078
7038
7038
6038
0078
03D8
0E38
1838
7038
6038
E038
E038
F079
79DF
7F3E
3E1C
ENDCHAR

STARTCHAR acircumflex
ENCODING 226
SWIDTH 444 0
DWIDTH 17 0
BBX 16 26 1 0
BITMAP
07C0
07C0
0CE0
1860
1030
2008
0000
0000
0FE0
38F0
7078
7038
7038
6038
0078
03D8
0E38
1838
7038
6038
E038
E038
F079
79DF
7F3E
3E1C
ENDCHAR

STARTCHAR abreve
ENCODING 227
SWIDTH 444 0
DWIDTH 17 0
BBX 16 25 1 0
BITMAP
300C
1818
1FF8
0FF0
03C0
0000
0000
0FE0
38F0
3078
7038
7038
7038
0078
03D8
0E38
1838
7038
E038
E038
E038
F079
F9DF
7F3E
3E1C
ENDCHAR

STARTCHAR adieresis
ENCODING 228
SWIDTH 444 0
DWIDTH 17 0
BBX 16 25 1 0
BITMAP
1830
3C78
3C78
1830
0000
0000
0000
0FE0
38F0
7078
7038
7038
6038
0078
03D8
0E38
1838
7038
6038
E038
E038
F079
79DF
7F3E
3E1C
ENDCHAR

STARTCHAR lacute
ENCODING 229
SWIDTH 278 0
DWIDTH 11 0
BBX 9 34 1 0
BITMAP
0F80
0F00
0E00
1C00
1800
1000
2000
0400
3C00
FC00
1C00
1C00
1C00
1C00
1C00
1C00
1C00
1C00
1C00
1C00
1C00
1C00
1C00
1C00
1C00
1C00
1C00
1C00
1C00
1C00
1C00
1C00
3E00
FF80
ENDCHAR

STARTCHAR cacute
ENCODING 230
SWIDTH 444 0
DWIDTH 17 0
BBX 14 26 1 0
BITMAP
01E0
01C0
0380
0300
0200
0400
0000
0000
07E0
1C78
3838
303C
603C
6008
E000
E000
E000
E000
F000
F004
7004
7808
3C18
3FF0
1FE0
0780
ENDCHAR

STARTCHAR ccedilla
ENCODING 231
SWIDTH 444 0
DWIDTH 17 0
BBX 14 24 2 -6
BITMAP
07E0
1C70
3078
7038
6038
6010
E000
E000
E000
E000
E000
F004
7008
7818
3C30
3FF0
1FE0
0500
0780
03C0
01C0
01C0
0380
1E00
ENDCHAR

STARTCHAR ccaron
ENCODING 232
SWIDTH 444 0
DWIDTH 17 0
BBX 14 26 1 0
BITMAP
3010
1820
0C60
0EC0
07C0
0780
0000
0000
07E0
1C78
3838
303C
603C
6008
E000
E000
E000
E000
F000
F004
7004
7808
3C18
3FF0
1FE0
0780
ENDCHAR

STARTCHAR eacute
ENCODING 233
SWIDTH 444 0
DWIDTH 17 0
BBX 15 26 1 0
BITMAP
01F0
01C0
0180
0300
0300
0200
0000
0000
07E0
1CF8
303C
303C
601C
601E
7FFE
E000
E000
E000
F000
7002
7806
7C04
3E1C
3FF8
1FF0
07C0
ENDCHAR

STARTCHAR eogonek
ENCODING 234
SWIDTH 444 0
DWIDTH 17 0
BBX 15 24 1 -6
BITMAP
07E0
1C78
303C
301C
601E
601E
FFFE
E000
E000
E000
F000
F002
7802
7C04
3E1C
3FF8
1FF0
05C0
0300
0300
0380
0380
01FE
0070
ENDCHAR

STARTCHAR edieresis
ENCODING 235
SWIDTH 444 0
DWIDTH 17 0
BBX 15 25 1 0
BITMAP
1C70
3C78
3C78
1830
0000
0000
0000
07E0
1CF8
303C
601C
601E
601E
FFFE
E000
E000
E000
E000
F002
7002
7804
7E1C
3FF8
1FF0
07C0
ENDCHAR

STARTCHAR ecaron
ENCODING 236
SWIDTH 444 0
DWIDTH 17 0
BBX 15 26 1 0
BITMAP
3018
1830
0E60
0760
07C0
0380
0000
0000
07E0
1CF8
303C
303C
601C
601E
7FFE
E000
E000
E000
F000
7002
7806
7C04
3E1C
3FF8
1FF0
07C0
ENDCHAR

STARTCHAR iacute
ENCODING 237
SWIDTH 278 0
DWIDTH 11 0
BBX 9 26 1 0
BITMAP
0F80
0E00
0C00
1C00
1800
3000
0000
0000
0400
3C00
FC00
1C00
1C00
1C00
1C00
1C00
1C00
1C00
1C00
1C00
1C00
1C00
1C00
1C00
3E00
FF80
ENDCHAR

STARTCHAR icircumflex
ENCODING 238
SWIDTH 278 0
DWIDTH 11 0
BBX 11 26 0 0
BITMAP
1E00
1F00
3B00
3380
60C0
C060
0000
0000
0200
1E00
7E00
0E00
0E00
0E00
0E00
0E00
0E00
0E00
0E00
0E00
0E00
0E00
0E00
0E00
1F00
7FC0
ENDCHAR

STARTCHAR dcaron
ENCODING 239
SWIDTH 500 0
DWIDTH 19 0
BBX 21 26 1 0
BITMAP
000E70
007EF8
001E78
000E18
000E10
000E30
000E40
000E00
07EE00
0C3E00
181E00
301E00
700E00
700E00
E00E00
E00E00
E00E00
E00E00
F00E00
F00E00
F00E00
780E00
780E00
3E3FC0
1FEF00
0F8C00
ENDCHAR

STARTCHAR dcroat
ENCODING 240
SWIDTH 500 0
DWIDTH 19 0
BBX 18 27 1 0
BITMAP
000600
001E00
007E00
000E00
000E00
03FFC0
03FFC0
000E00
000E00
07EE00
0C3E00
381E00
301E00
700E00
700E00
E00E00
E00E00
E00E00
E00E00
F00E00
F00E00
F00E00
780E00
780E00
3E3FC0
1FEF00
0F8C00
ENDCHAR

STARTCHAR nacute
ENCODING 241
SWIDTH 500 0
DWIDTH 19 0
BBX 19 26 0 0
BITMAP
007800
007000
00E000
00C000
008000
010000
000000
000000
0C7C00
7CFE00
BD8F00
1E0700
1C0700
1C0700
1C0700
1C0700
1C0700
1C0700
1C0700
1C0700
1C0700
1C0700
1C0700
1C0700
3E0F80
FFBFE0
ENDCHAR

STARTCHAR ncaron
ENCODING 242
SWIDTH 500 0
DWIDTH 19 0
BBX 19 26 0 0
BITMAP
0C0600
060800
031800
03D000
01F000
00E000
000000
000000
0C7C00
7CFE00
BD8F00
1E0700
1C0700
1C0700
1C0700
1C0700
1C0700
1C0700
1C0700
1C0700
1C0700
1C0700
1C0700
1C0700
3E0F80
FFBFE0
ENDCHAR

STARTCHAR oacute
ENCODING 243
SWIDTH 500 0
DWIDTH 19 0
BBX 16 26 2 0
BITMAP
00F0
01E0
01C0
0180
0100
0200
0000
0000
07E0
1C78
381C
701E
700E
E00F
E00F
E007
E007
E007
F007
F007
F007
780E
780E
3C1C
1E38
07E0
ENDCHAR

STARTCHAR ocircumflex
ENCODING 244
SWIDTH 500 0
DWIDTH 19 0
BBX 16 26 2 0
BITMAP
03C0
07E0
06E0
0C30
1818
1008
0000
0000
07E0
1C78
381C
701E
700E
E00F
E00F
E007
E007
E007
F007
F007
F007
780E
780E
3C1C
1E38
07E0
ENDCHAR

STARTCHAR ohungarumlaut
ENCODING 245
SWIDTH 500 0
DWIDTH 19 0
BBX 16 26 2 0
BITMAP
079C
0638
0E30
0C30
0820
0820
0000
0000
07E0
1C78
381C
701E
700E
E00F
E00F
E007
E007
E007
F007
F007
F007
780E
780E
3C1C
1E38
07E0
ENDCHAR

STARTCHAR odieresis
ENCODING 246
SWIDTH 500 0
DWIDTH 19 0
BBX 16 25 2 0
BITMAP
0C30
1E78
1E78
0C30
0000
0000
0000
07E0
1C78
381C
701E
700E
E00F
E00F
E007
E007
E007
F007
F007
F007
780E
780E
3C1C
1E38
07E0
ENDCHAR

STARTCHAR divide
ENCODING 247
SWIDTH 564 0
DWIDTH 21 0
BBX 20 14 1 6
BITMAP
00E000
00E000
00E000
000000
000000
000000
FFFFF0
FFFFF0
000000
000000
000000
00E000
00E000
00E000
ENDCHAR

STARTCHAR rcaron
ENCODING 248
SWIDTH 333 0
DWIDTH 13 0
BBX 13 26 0 0
BITMAP
4010
3020
18C0
1DC0
0F80
0F80
0000
0000
0470
3CF8
FDF8
1E30
1E00
1C00
1C00
1C00
1C00
1C00
1C00
1C00
1C00
1C00
1C00
1C00
3E00
FF80
ENDCHAR

STARTCHAR uring
ENCODING 249
SWIDTH 500 0
DWIDTH 19 0
BBX 19 27 0 0
BITMAP
01F000
031800
020800
020800
020800
031000
01F000
000000
000000
FC1F00
3C0700
1C0700
1C0700
1C0700
1C0700
1C0700
1C0700
1C0700
1C0700
1C0700
1C0700
1C0700
1C0700
1E0B00
0F37A0
0FE7C0
07C600
ENDCHAR

STARTCHAR uacute
ENCODING 250
SWIDTH 500 0
DWIDTH 19 0
BBX 19 27 0 0
BITMAP
007800
00F000
00E000
00C000
008000
018000
010000
000000
000000
FC3F00
3C0700
1C0700
1C0700
1C0700
1C0700
1C0700
1C0700
1C0700
1C0700
1C0700
1C0700
1C0700
1C0700
1E0B00
0E37A0
0FE7C0
07C600
ENDCHAR

STARTCHAR uhungarumlaut
ENCODING 251
SWIDTH 500 0
DWIDTH 19 0
BBX 19 27 0 0
BITMAP
038E00
039C00
071C00
061800
061000
041000
042000
000000
000000
FC3F00
3C0700
1C0700
1C0700
1C0700
1C0700
1C0700
1C0700
1C0700
1C0700
1C0700
1C0700
1C0700
1C0700
1E0B00
0E37A0
0FE7C0
07C600
ENDCHAR

STARTCHAR udieresis
ENCODING 252
SWIDTH 500 0
DWIDTH 19 0
BBX 19 26 0 0
BITMAP
060C00
0F1E00
0F1E00
060C00
000000
000000
000000
000000
FC3F00
3C0700
1C0700
1C0700
1C0700
1C0700
1C0700
1C0700
1C0700
1C0700
1C0700
1C0700
1C0700
1C0700
1E0B00
0E37A0
0FE7C0
07C600
ENDCHAR

STARTCHAR yacute
ENCODING 253
SWIDTH 500 0
DWIDTH 19 0
BBX 19 34 0 -7
BITMAP
007C00
007800
007000
00E000
00C000
008000
008000
000000
000000
FF07E0
3C0180
1C0180
1E0100
0E0300
0E0200
070600
070600
038C00
038C00
01C800
01D800
00F000
00F000
007000
006000
006000
004000
00C000
00C000
018000
3B8000
7F0000
7E0000
380000
ENDCHAR

STARTCHAR tcommaaccent
ENCODING 254
SWIDTH 278 0
DWIDTH 11 0
BBX 11 33 0 -9
BITMAP
0400
0400
0C00
0C00
1C00
3C00
FFC0
1C00
1C00
1C00
1C00
1C00
1C00
1C00
1C00
1C00
1C00
1C00
1C00
1C00
1C20
1E40
0F80
0F00
0000
0000
0E00
0F00
0F00
0100
0100
0600
0C00
ENDCHAR

STARTCHAR dotaccent
ENCODING 255
SWIDTH 333 0
DWIDTH 13 0
BBX 4 4 4 21
BITMAP
60
F0
F0
60
ENDCHAR
ENDFONT
